<svg width="106" height="27" viewBox="0 0 106 27" fill="none" xmlns="http://www.w3.org/2000/svg">
<g clip-path="url(#clip0_658_14437)">
<path d="M29.1082 5.30011L29.914 5.88095C31.3154 7.00631 32.1212 8.27689 32.2964 9.72897C33.803 9.43855 35.7299 9.65637 36.5708 10.2372L37.3416 10.7091L37.2015 10.9995C36.9562 11.5441 36.8861 11.6893 36.8511 11.7619C35.4847 14.4845 32.7869 14.5209 31.5256 14.4845C28.3374 22.4347 21.5404 26.8273 12.361 26.8273C8.12161 26.8273 4.8983 25.4841 2.72607 22.834C-0.146882 19.349 -0.146882 14.8113 0.0983693 13.3592L0.168441 13.0688H25.4994C26.8308 13.0688 27.8469 12.7057 28.3374 12.4153C27.8118 11.6167 27.6366 10.7091 27.6016 10.2009C27.4965 8.74881 27.8469 7.22412 28.5476 6.13506L29.1082 5.30011ZM51.0565 6.98575C51.3391 6.98575 51.5784 7.08007 51.7743 7.26872C51.9702 7.45738 52.0682 7.69559 52.0682 7.98336V16.9619C52.0682 18.4584 51.5415 19.7245 50.488 20.7605C49.4216 21.8093 48.1498 22.3337 46.6723 22.3337C45.182 22.3337 43.9101 21.8093 42.8567 20.7605C41.8032 19.7118 41.2764 18.4456 41.2764 16.9619C41.2764 15.4783 41.8032 14.2121 42.8567 13.1633C43.9101 12.1145 45.182 11.5901 46.6723 11.5901C47.9506 11.5901 49.078 11.9834 50.0544 12.77V7.98336C50.0544 7.69559 50.1491 7.45738 50.3386 7.26872C50.5281 7.08007 50.7674 6.98575 51.0565 6.98575ZM58.6111 11.5901C60.0885 11.5901 61.3604 12.1145 62.4267 13.1633C62.9535 13.6877 63.3469 14.2664 63.6071 14.8995C63.8673 15.5326 64.0005 16.2201 64.007 16.9619C64.007 18.4584 63.4802 19.7245 62.4267 20.7605C61.3604 21.8093 60.0885 22.3337 58.6111 22.3337C57.1208 22.3337 55.8489 21.8093 54.7954 20.7605C53.7419 19.7118 53.2152 18.4456 53.2152 16.9619C53.2152 15.4783 53.7419 14.2121 54.7954 13.1633C55.8489 12.1145 57.1208 11.5901 58.6111 11.5901ZM70.5306 11.5901C71.886 11.5901 73.0583 12.025 74.0475 12.8947C74.2788 13.0993 74.3944 13.3519 74.3944 13.6525C74.3944 13.9403 74.2997 14.1801 74.1102 14.372C73.9207 14.5638 73.6814 14.6597 73.3923 14.6597C73.1482 14.6597 72.9298 14.583 72.7371 14.4295C72.4095 14.1545 72.0658 13.9467 71.7061 13.806C71.3464 13.6653 70.9545 13.595 70.5306 13.595C70.0616 13.595 69.6216 13.6829 69.2105 13.8588C68.7994 14.0346 68.4397 14.2744 68.1313 14.5782C67.823 14.882 67.5805 15.2385 67.4039 15.6477C67.2272 16.057 67.1389 16.4951 67.1389 16.9619C67.1389 17.4288 67.2272 17.8668 67.4039 18.2761C67.5805 18.6854 67.823 19.0419 68.1313 19.3456C68.4397 19.6494 68.7994 19.8892 69.2105 20.0651C69.6216 20.2409 70.0616 20.3289 70.5306 20.3289C70.9545 20.3289 71.3464 20.2601 71.7061 20.1226C72.0658 19.9851 72.4063 19.7789 72.7275 19.5039C72.9073 19.3696 73.1193 19.2993 73.3634 19.2929C73.6525 19.2929 73.8918 19.3872 74.0813 19.5759C74.2708 19.7645 74.3655 20.0027 74.3655 20.2905C74.3655 20.5719 74.2595 20.8181 74.0475 21.0291C73.0519 21.8989 71.8796 22.3337 70.5306 22.3337C69.0403 22.3337 67.7684 21.8093 66.7149 20.7605C65.6614 19.7118 65.1347 18.4456 65.1347 16.9619C65.1347 15.4783 65.6614 14.2121 66.7149 13.1633C67.7684 12.1145 69.0403 11.5901 70.5306 11.5901ZM76.5435 6.98575C76.8197 6.98575 77.0558 7.08327 77.2517 7.27832C77.4476 7.47336 77.5456 7.71158 77.5456 7.99296V15.4751L83.3076 11.7436C83.4682 11.6413 83.6481 11.5901 83.8472 11.5901C83.9885 11.5901 84.1202 11.6157 84.2423 11.6669C84.3643 11.718 84.4703 11.79 84.5602 11.8827C84.6502 11.9754 84.7224 12.0825 84.777 12.2041C84.8316 12.3256 84.8589 12.4535 84.8589 12.5878C84.8589 12.9459 84.7305 13.2113 84.4735 13.3839L80.4363 15.9931L84.5795 20.6358C84.7658 20.8405 84.8589 21.0739 84.8589 21.3361C84.8589 21.4704 84.8316 21.5983 84.777 21.7198C84.7224 21.8413 84.6502 21.9484 84.5602 22.0411C84.4703 22.1339 84.3643 22.2058 84.2423 22.257C84.1202 22.3081 83.9885 22.3337 83.8472 22.3337C83.5774 22.3337 83.3526 22.2474 83.1727 22.0747L78.7211 17.0962L77.5456 17.8636V21.3265C77.5456 21.6015 77.4476 21.8381 77.2517 22.0363C77.0558 22.2346 76.8197 22.3337 76.5435 22.3337C76.2609 22.3337 76.0216 22.2346 75.8257 22.0363C75.6297 21.8381 75.5318 21.6015 75.5318 21.3265V7.99296C75.5318 7.71158 75.6297 7.47336 75.8257 7.27832C76.0216 7.08327 76.2609 6.98575 76.5435 6.98575ZM91.344 11.5901C92.8215 11.5901 94.0933 12.1145 95.1597 13.1633C95.6864 13.6813 96.0815 14.2584 96.3448 14.8947C96.6082 15.531 96.7399 16.2201 96.7399 16.9619C96.7399 17.2497 96.6419 17.4879 96.446 17.6766C96.2501 17.8652 96.0108 17.9595 95.7282 17.9595H88.0969C88.2061 18.3113 88.3667 18.6326 88.5786 18.9236C88.7906 19.2146 89.0395 19.464 89.3254 19.6718C89.6112 19.8796 89.926 20.0411 90.2697 20.1562C90.6133 20.2713 90.9715 20.3289 91.344 20.3289C91.768 20.3289 92.1566 20.2649 92.5099 20.137C92.8632 20.0091 93.1908 19.8173 93.4927 19.5615C93.6855 19.4016 93.9071 19.3185 94.1576 19.3121C94.4467 19.3121 94.6859 19.4064 94.8754 19.5951C95.0649 19.7837 95.1597 20.0219 95.1597 20.3097C95.1597 20.5911 95.0633 20.8309 94.8706 21.0291C93.8749 21.8989 92.6994 22.3337 91.344 22.3337C89.8537 22.3337 88.5819 21.8093 87.5284 20.7605C86.4749 19.7118 85.9481 18.4456 85.9481 16.9619C85.9481 15.4783 86.4749 14.2121 87.5284 13.1633C88.5819 12.1145 89.8537 11.5901 91.344 11.5901ZM103.244 11.5901C103.527 11.5901 103.83 11.6093 104.155 11.6477C104.479 11.6861 104.778 11.7548 105.051 11.8539C105.324 11.953 105.55 12.0889 105.73 12.2616C105.91 12.4343 106 12.6581 106 12.9331C106 13.0738 105.973 13.2049 105.918 13.3264C105.863 13.4479 105.791 13.555 105.701 13.6477C105.611 13.7404 105.505 13.8124 105.383 13.8636C105.261 13.9147 105.13 13.9403 104.988 13.9403C104.866 13.9403 104.725 13.9051 104.564 13.8348C104.16 13.6749 103.72 13.595 103.244 13.595C102.775 13.595 102.335 13.6829 101.924 13.8588C101.513 14.0346 101.155 14.2744 100.85 14.5782C100.545 14.882 100.304 15.2385 100.127 15.6477C99.9505 16.057 99.8622 16.4951 99.8622 16.9619V21.3361C99.8622 21.6111 99.7642 21.8461 99.5683 22.0411C99.3724 22.2362 99.1363 22.3337 98.8601 22.3337C98.5775 22.3337 98.3382 22.2362 98.1423 22.0411C97.9463 21.8461 97.8484 21.6111 97.8484 21.3361V12.5878C97.8484 12.3128 97.9463 12.0778 98.1423 11.8827C98.3382 11.6877 98.5775 11.5901 98.8601 11.5901C99.1363 11.5901 99.3724 11.6877 99.5683 11.8827C99.7642 12.0778 99.8622 12.3128 99.8622 12.5878V12.7796C100.344 12.3959 100.867 12.1017 101.433 11.8971C101.998 11.6925 102.602 11.5901 103.244 11.5901ZM46.6723 13.595C46.197 13.595 45.7537 13.6845 45.3426 13.8636C44.9315 14.0426 44.575 14.284 44.2731 14.5878C43.9712 14.8915 43.7319 15.2481 43.5552 15.6573C43.3786 16.0666 43.2903 16.5015 43.2903 16.9619C43.2903 17.4224 43.3786 17.8572 43.5552 18.2665C43.7319 18.6758 43.9712 19.0323 44.2731 19.3361C44.575 19.6398 44.9315 19.8812 45.3426 20.0603C45.7537 20.2393 46.197 20.3289 46.6723 20.3289C47.1413 20.3289 47.5813 20.2393 47.9924 20.0603C48.4035 19.8812 48.7616 19.6382 49.0667 19.3313C49.3719 19.0243 49.6128 18.6678 49.7894 18.2617C49.9661 17.8556 50.0544 17.4224 50.0544 16.9619C50.0544 16.5015 49.9661 16.0682 49.7894 15.6621C49.6128 15.2561 49.3719 14.8995 49.0667 14.5926C48.7616 14.2856 48.4035 14.0426 47.9924 13.8636C47.5813 13.6845 47.1413 13.595 46.6723 13.595ZM58.6111 13.595C58.1357 13.595 57.6925 13.6845 57.2814 13.8636C56.8703 14.0426 56.5138 14.284 56.2118 14.5878C55.9099 14.8915 55.6707 15.2481 55.494 15.6573C55.3174 16.0666 55.229 16.5015 55.229 16.9619C55.229 17.4224 55.3174 17.8572 55.494 18.2665C55.6707 18.6758 55.9099 19.0323 56.2118 19.3361C56.5138 19.6398 56.8703 19.8812 57.2814 20.0603C57.6925 20.2393 58.1357 20.3289 58.6111 20.3289C59.08 20.3289 59.52 20.2393 59.9311 20.0603C60.3423 19.8812 60.7004 19.6382 61.0055 19.3313C61.3106 19.0243 61.5515 18.6678 61.7282 18.2617C61.9048 17.8556 61.9931 17.4224 61.9931 16.9619C61.9931 16.5015 61.9048 16.0682 61.7282 15.6621C61.5515 15.2561 61.3106 14.8995 61.0055 14.5926C60.7004 14.2856 60.3423 14.0426 59.9311 13.8636C59.52 13.6845 59.08 13.595 58.6111 13.595ZM91.344 13.595C90.9779 13.595 90.6214 13.6525 90.2745 13.7676C89.9276 13.8827 89.6096 14.0442 89.3206 14.252C89.0315 14.4599 88.781 14.7093 88.569 15.0003C88.357 15.2912 88.1996 15.6126 88.0969 15.9643H94.5912C94.482 15.6126 94.3198 15.2912 94.1046 15.0003C93.8894 14.7093 93.6389 14.4599 93.353 14.252C93.0672 14.0442 92.7524 13.8827 92.4087 13.7676C92.0651 13.6525 91.7102 13.595 91.344 13.595ZM6.7552 8.71251V12.3427H2.90125V8.71251H6.7552ZM11.3099 8.71251V12.3427H7.45592V8.71251H11.3099ZM15.8646 8.71251V12.3427H12.0106V8.71251H15.8646ZM20.4192 8.71251V12.3427H16.5653V8.71251H20.4192ZM24.9739 8.71251V12.3427H21.1199V8.71251H24.9739ZM20.4192 4.35626V7.98647H16.5653V4.35626H20.4192ZM15.8646 4.35626V7.98647H12.0106V4.35626H15.8646ZM11.3099 4.35626V7.98647H7.45592V4.35626H11.3099ZM20.4192 0V3.63021H16.5653V0H20.4192Z" fill="#2396ED"/>
</g>
<defs>
<clipPath id="clip0_658_14437">
<rect width="106" height="27" fill="white"/>
</clipPath>
</defs>
</svg>
