<svg width="48" height="48" viewBox="0 0 48 48" fill="none" xmlns="http://www.w3.org/2000/svg">
<path d="M26.818 3.18198C28.5754 1.42462 31.4246 1.42462 33.182 3.18198L44.818 14.818C46.5754 16.5754 46.5754 19.4246 44.818 21.182L33.182 32.818C31.4246 34.5754 28.5754 34.5754 26.818 32.818L15.182 21.182C13.4246 19.4246 13.4246 16.5754 15.182 14.818L26.818 3.18198Z" fill="url(#paint0_linear_4321_34)"/>
<path d="M5.33366 21.3333C3.8609 21.3333 2.66699 22.5272 2.66699 23.9999V37.3333C2.66699 38.806 3.8609 39.9999 5.33366 39.9999H18.667V23.9999C18.667 22.5272 17.4731 21.3333 16.0003 21.3333H5.33366Z" fill="#90ECF4"/>
<path d="M22.1504 25.3333H18.667V39.9999H26.667C28.1398 39.9999 29.3337 38.806 29.3337 37.3333V32.118C29.3337 31.368 29.0179 30.6527 28.4637 30.1474L23.9471 26.0294C23.4559 25.5815 22.8151 25.3333 22.1504 25.3333Z" fill="#444BD3"/>
<path fill-rule="evenodd" clip-rule="evenodd" d="M9.33366 42.6666C10.8064 42.6666 12.0003 41.4727 12.0003 39.9999C12.0003 38.5272 10.8064 37.3333 9.33366 37.3333C7.8609 37.3333 6.66699 38.5272 6.66699 39.9999C6.66699 41.4727 7.8609 42.6666 9.33366 42.6666ZM25.8859 41.8855C26.386 41.3854 26.667 40.7072 26.667 39.9999H24.0003L21.3337 39.9999C21.3337 40.7072 21.6146 41.3854 22.1147 41.8855C22.6148 42.3856 23.2931 42.6666 24.0003 42.6666C24.7076 42.6666 25.3858 42.3856 25.8859 41.8855Z" fill="#444BD3"/>
<defs>
<linearGradient id="paint0_linear_4321_34" x1="30" y1="0" x2="30" y2="36" gradientUnits="userSpaceOnUse">
<stop stop-color="#DEDEDE"/>
<stop offset="1" stop-color="#DEDEDE" stop-opacity="0"/>
</linearGradient>
</defs>
</svg>
