<svg width="90" height="29" viewBox="0 0 90 29" fill="none" xmlns="http://www.w3.org/2000/svg">
<g clip-path="url(#clip0_658_14420)">
<path d="M87.1967 17.7233L89.6934 19.3578C88.883 20.5299 86.9448 22.5408 83.594 22.5408C79.4329 22.5408 76.334 19.3793 76.334 15.3575C76.334 11.0777 79.4658 8.17432 83.2436 8.17432C87.0434 8.17432 88.9049 11.1422 89.5072 12.7445L89.8357 13.5617L80.0461 17.5405C80.7908 18.9814 81.9515 19.7126 83.594 19.7126C85.2366 19.7126 86.3754 18.9169 87.1967 17.7233ZM79.5205 15.1317L86.0579 12.4649C85.6965 11.5724 84.6234 10.9379 83.3422 10.9379C81.7106 10.9379 79.4439 12.3574 79.5205 15.1317Z" fill="#FF302F"/>
<path d="M71.6143 0.851562H74.768V21.8851H71.6143V0.851562Z" fill="#20B15A"/>
<path d="M66.6431 8.7335H69.6873V21.5084C69.6873 26.8098 66.5008 28.9928 62.7338 28.9928C59.1859 28.9928 57.0506 26.6485 56.2513 24.7452L59.0436 23.6053C59.5473 24.7775 60.7628 26.1646 62.7338 26.1646C65.1539 26.1646 66.6431 24.6914 66.6431 21.9386V20.9063H66.5336C65.8109 21.7665 64.4311 22.5408 62.6791 22.5408C59.0217 22.5408 55.6709 19.4115 55.6709 15.3791C55.6709 11.3251 59.0217 8.16357 62.6791 8.16357C64.4202 8.16357 65.8109 8.92706 66.5336 9.76582H66.6431V8.7335ZM66.8621 15.3791C66.8621 12.8413 65.1429 10.9917 62.9529 10.9917C60.7409 10.9917 58.8793 12.8413 58.8793 15.3791C58.8793 17.8846 60.7409 19.7019 62.9529 19.7019C65.1429 19.7126 66.8621 17.8846 66.8621 15.3791Z" fill="#3686F7"/>
<path d="M38.3581 15.3253C38.3581 19.4653 35.073 22.5085 31.0433 22.5085C27.0136 22.5085 23.7285 19.4546 23.7285 15.3253C23.7285 11.1638 27.0136 8.13135 31.0433 8.13135C35.073 8.13135 38.3581 11.1638 38.3581 15.3253ZM35.1606 15.3253C35.1606 12.7445 33.2553 10.9702 31.0433 10.9702C28.8314 10.9702 26.926 12.7445 26.926 15.3253C26.926 17.8846 28.8314 19.6804 31.0433 19.6804C33.2553 19.6804 35.1606 17.8846 35.1606 15.3253Z" fill="#FF302F"/>
<path d="M54.3347 15.3575C54.3347 19.4976 51.0496 22.5408 47.0199 22.5408C42.9902 22.5408 39.7051 19.4976 39.7051 15.3575C39.7051 11.196 42.9902 8.17432 47.0199 8.17432C51.0496 8.17432 54.3347 11.1852 54.3347 15.3575ZM51.1262 15.3575C51.1262 12.7767 49.2209 11.0024 47.0089 11.0024C44.797 11.0024 42.8916 12.7767 42.8916 15.3575C42.8916 17.9168 44.797 19.7126 47.0089 19.7126C49.2318 19.7126 51.1262 17.9061 51.1262 15.3575Z" fill="#FFBA40"/>
<path d="M11.7053 19.3901C7.11716 19.3901 3.52546 15.7555 3.52546 11.2499C3.52546 6.74424 7.11716 3.10962 11.7053 3.10962C14.1801 3.10962 15.9869 4.06666 17.3228 5.29254L19.5239 3.13112C17.6623 1.37833 15.1766 0.0449219 11.7053 0.0449219C5.41986 0.0449219 0.130859 5.07748 0.130859 11.2499C0.130859 17.4223 5.41986 22.4548 11.7053 22.4548C15.0999 22.4548 17.6623 21.358 19.6662 19.3149C21.7249 17.2932 22.36 14.4544 22.36 12.1532C22.36 11.4327 22.2724 10.6907 22.1738 10.1423H11.7053V13.1317H19.1625C18.9435 15.0028 18.3412 16.2824 17.4543 17.1535C16.3811 18.218 14.6838 19.3901 11.7053 19.3901Z" fill="#3686F7"/>
</g>
<defs>
<clipPath id="clip0_658_14420">
<rect width="90" height="29" fill="white"/>
</clipPath>
</defs>
</svg>
