<svg width="121" height="18" viewBox="0 0 121 18" fill="none" xmlns="http://www.w3.org/2000/svg">
<g clip-path="url(#clip0_658_14440)">
<path d="M9.075 0.196923C14.0763 0.196923 18.15 4.17477 18.15 9.09785C18.15 14.0209 14.0763 17.9988 9.075 17.9988C4.07367 17.9988 0 14.0603 0 9.09785C0 4.13538 4.07367 0.196923 9.075 0.196923ZM80.223 0V15.5963C80.223 16.7778 80.707 17.0929 81.6347 17.3292L81.675 17.5262H76.5527V15.5963C75.9477 17.0142 74.6973 17.8806 73.084 17.8806C70.3413 17.8806 68.5263 15.4388 68.5263 11.8154C68.5263 9.76738 69.1313 8.03446 70.2607 6.73477C71.3497 5.47446 72.842 4.80492 74.4957 4.80492C75.3023 4.80492 75.988 4.96246 76.5527 5.31692V3.19015C76.5527 2.71754 76.4317 2.40246 76.1897 2.16615C75.867 1.89046 75.3427 1.77231 74.536 1.85108H74.4957V1.65415L80.223 0ZM99.6637 4.84431V15.5963C99.6637 16.7778 100.148 17.0929 101.075 17.3292V17.5262H95.953V15.5569C95.348 16.9748 94.017 17.8806 92.5247 17.8806C90.75 17.8806 89.6207 17.0929 89.177 15.5569L89.0963 15.1631C89.0157 14.7692 88.9753 14.3754 88.9753 13.9815V8.23139C88.9753 6.97108 88.693 6.57723 87.5637 6.49846H87.5233V6.30154L92.6457 4.84431V13.9028C92.6457 15.2418 93.2507 15.9902 94.38 15.9902C95.0657 15.9902 95.6303 15.6357 95.953 15.0449V8.23139C95.953 6.93169 95.711 6.53785 94.7833 6.45908H94.743V6.26215L99.6637 4.84431ZM62.678 4.80492C64.0493 4.80492 65.3803 5.27754 66.2677 6.10462C67.276 7.04985 67.8003 8.42831 67.8407 10.24V10.2794H60.137C59.9757 12.8788 61.6293 15.0055 63.8073 15.0843C65.3803 15.2025 66.7517 14.2572 67.518 12.7212L67.7197 12.8C67.276 15.6751 65.5417 17.8412 62.5167 17.8412C59.0883 17.8412 57.1523 15.0449 57.0717 11.5397V10.6338C57.233 9.09785 57.717 7.71938 58.564 6.69538C59.0883 6.06523 59.6933 5.59262 60.4193 5.27754C61.0243 4.96246 61.9117 4.80492 62.6377 4.80492H62.678ZM116.039 4.84431C118.217 4.84431 119.548 6.18338 119.548 8.46769V15.7932C119.548 16.6597 119.951 17.0929 120.96 17.3292H121V17.5262H115.837V8.58585C115.837 7.168 115.313 6.45908 114.224 6.45908C113.337 6.45908 112.893 7.08923 112.651 7.64062C112.691 7.91631 112.732 8.192 112.732 8.46769V15.9114C112.732 16.8172 113.014 17.1323 113.821 17.3292H113.861V17.5262H109.061V8.58585C109.061 7.168 108.497 6.45908 107.448 6.45908C106.601 6.45908 106.157 7.04985 105.956 7.52246V15.9508C105.956 16.8566 106.238 17.1717 107.045 17.3686H107.085V17.5655H102.285V8.192C102.285 6.93169 101.963 6.53785 100.874 6.45908H100.833V6.26215L105.956 4.88369V6.97108C106.48 5.632 107.69 4.84431 109.223 4.84431C110.957 4.84431 112.167 5.67138 112.57 7.168C113.095 5.75015 114.426 4.84431 116.039 4.84431ZM42.471 0.787692L47.2707 11.776L52.0703 0.787692H57.233L57.1927 0.984615L57.1341 0.997352C56.2446 1.1953 55.781 1.52008 55.781 2.59938V15.9902C55.8617 16.8566 56.3457 17.1323 57.1927 17.3292H57.233V17.5262H50.6587V17.3292H50.699C51.546 17.1323 52.03 16.8566 52.1107 15.9902V2.95385L45.7783 17.4868H45.4153L39.2443 3.34769V15.6751C39.2443 16.7778 39.7283 17.0929 40.656 17.2898H40.6963V17.4868H36.905V17.2898H36.9453C37.873 17.0929 38.357 16.7778 38.357 15.6751V2.59938C38.357 1.49662 37.873 1.18154 36.9453 0.984615H36.905V0.787692H42.471ZM86.4747 4.84431V15.5963L86.4753 15.669C86.495 16.7909 86.978 17.0978 87.8863 17.3292L87.9267 17.5262H82.8043V8.23139C82.8043 6.97108 82.522 6.57723 81.3927 6.49846H81.3523V6.30154L86.4747 4.84431ZM23.595 0.708923C26.0553 0.708923 28.1123 4.48985 28.1123 9.09785C28.1123 13.7452 26.0957 17.4868 23.595 17.4868C21.0943 17.4868 19.0777 13.7452 19.0777 9.09785C19.0777 4.45046 21.0943 0.708923 23.595 0.708923ZM30.5323 1.57538C31.46 1.57538 32.1457 4.96246 32.1457 9.09785C32.1457 13.2332 31.4197 16.6203 30.5323 16.6203C29.6539 16.6203 28.9335 13.3006 28.9192 9.22168L28.919 9.09785C28.919 4.96246 29.645 1.57538 30.5323 1.57538ZM75.1007 5.51385C73.4873 5.51385 72.479 7.60123 72.479 10.8308C72.479 12.3668 72.7613 13.7058 73.2453 14.6117C73.689 15.4782 74.3343 15.9508 75.0603 15.9508C75.7863 15.9508 76.3107 15.6357 76.5527 15.0449V6.38031C76.2703 5.82892 75.746 5.51385 75.1007 5.51385ZM62.6377 5.55323C61.1857 5.55323 60.3387 7.24677 60.2177 9.60985V9.64923H64.614C64.6947 7.79815 64.372 6.57723 63.767 5.98646C63.4443 5.71077 63.0813 5.55323 62.6377 5.55323ZM84.4983 0.118154C85.668 0.118154 86.5553 0.984615 86.5553 2.12677C86.5553 3.26892 85.668 4.13538 84.4983 4.13538C83.3287 4.13538 82.4413 3.26892 82.4413 2.12677C82.4413 0.984615 83.3287 0.118154 84.4983 0.118154Z" fill="black"/>
</g>
<defs>
<clipPath id="clip0_658_14440">
<rect width="121" height="18" fill="white"/>
</clipPath>
</defs>
</svg>
