<svg width="101" height="27" viewBox="0 0 101 27" fill="none" xmlns="http://www.w3.org/2000/svg">
<g clip-path="url(#clip0_658_14417)">
<path d="M67.2 0V19.6049C69.638 19.7175 72.0699 19.8535 74.4948 20.0139V24.1704C70.6614 23.917 66.8119 23.7235 62.9464 23.5916V0H67.2ZM101 0.0023226L95.4614 12.7381L100.999 26.9107L100.992 26.9134C99.3795 26.6852 97.7644 26.4697 96.1446 26.2632L93.035 18.3087L89.8959 25.5248C88.4082 25.3618 86.9185 25.2077 85.4254 25.0632L90.8249 12.653L85.88 0.0023226H90.4813L93.2499 7.08178L96.3285 0.0023226H101ZM48.3485 23.3856L48.3483 0.00224745H60.2218V4.19609H52.6018V9.63151H58.3673V13.788H52.6018V23.3846L48.3485 23.3856ZM32.466 4.19644L32.4659 0.00202883H45.6217V4.19615H41.1704V23.4994C39.7507 23.5362 38.3325 23.5799 36.9172 23.6328V4.19644H32.466ZM17.9252 24.8412V0.00273244H29.7394V4.19658H22.178V9.8775C23.9151 9.85543 26.3851 9.83043 27.9217 9.83412V13.9909C25.9982 13.9672 23.827 14.0171 22.178 14.0334V20.3263C24.6911 20.1302 27.2118 19.9587 29.7394 19.8139V23.9708C25.7834 24.1968 21.8452 24.4879 17.9252 24.8412ZM9.5814 15.2323L9.58112 0.00204938H13.8346V25.233C12.2797 25.3917 10.7278 25.5605 9.1785 25.7387L4.25323 11.7048V26.3398C2.83268 26.5233 1.41503 26.7146 0 26.9144V0.0023226H4.0422L9.5814 15.2323ZM78.0038 24.4211V24.4212V0.00234981H82.2573V24.7695C80.8413 24.6445 79.424 24.5289 78.0038 24.4211Z" fill="#DB202C"/>
</g>
<defs>
<clipPath id="clip0_658_14417">
<rect width="101" height="27" fill="white"/>
</clipPath>
</defs>
</svg>
