<svg width="90" height="36" viewBox="0 0 90 36" fill="none" xmlns="http://www.w3.org/2000/svg">
<path d="M34.2598 7.875V26.899H41.2075C46.9029 26.899 50.2515 23.3657 50.2515 17.3409C50.2515 11.3159 46.8897 7.875 41.2075 7.875H34.2598ZM37.6612 10.749H40.8516C44.6485 10.749 46.7842 13.0957 46.7842 17.354C46.7842 21.6914 44.6748 24.0249 40.8516 24.0249H37.6612V10.749Z" fill="#6068DB"/>
<path d="M52.7168 26.899H55.9994V7.875H52.7168V26.899Z" fill="#6068DB"/>
<path d="M68.0489 22.7197C67.6929 23.8799 66.5327 24.6444 65.0034 24.6444C62.8545 24.6444 61.4833 23.1416 61.4833 20.9003V20.7026H71.2524V19.6347C71.2524 15.3896 68.7739 12.6343 64.8057 12.6343C60.7714 12.6343 58.2139 15.5478 58.2139 19.9643C58.2139 24.4203 60.7451 27.1757 64.9376 27.1757C68.2466 27.1757 70.6988 25.3565 71.1207 22.7197H68.0489ZM64.8189 15.1787C66.7041 15.1787 67.9698 16.563 68.0357 18.5405H61.5098C61.6416 16.5893 62.9732 15.1787 64.8189 15.1787Z" fill="#6068DB"/>
<path d="M78.5967 21.8891L81.497 26.8989H85.083L80.6401 19.8325L85.1357 12.9243H81.5366L78.7549 17.8286H78.6889L75.8677 12.9243H72.1762L76.6455 19.9247L72.1367 26.8989H75.6304L78.5308 21.8891H78.5967Z" fill="#6068DB"/>
<path fill-rule="evenodd" clip-rule="evenodd" d="M13.5088 31.4998C20.9605 31.4948 26.9997 25.4527 26.9997 17.9999C26.9997 10.5471 20.9605 4.50485 13.5088 4.5C18.7886 6.70637 22.4988 11.9198 22.4988 17.9999C22.4988 24.0798 18.7886 29.2933 13.5088 31.4998Z" fill="#444BD3" fill-opacity="0.32"/>
<path d="M0 9.30049C0 6.64952 2.12076 4.50049 4.73684 4.50049H7.87517C15.3309 4.50049 21.375 10.5446 21.375 18.0003C21.375 25.4562 15.3309 31.5002 7.87517 31.5002H4.73684C2.12076 31.5002 0 29.3512 0 26.7002V9.30049Z" fill="#6068DB"/>
</svg>
