<svg width="28" height="28" viewBox="0 0 28 28" fill="none" xmlns="http://www.w3.org/2000/svg">
<path d="M13.9997 2.3335C7.55635 2.3335 2.33301 7.55684 2.33301 14.0002C2.33301 20.4435 7.55635 25.6668 13.9997 25.6668C20.443 25.6668 25.6663 20.4435 25.6663 14.0002C25.6663 7.55684 20.443 2.3335 13.9997 2.3335Z" fill="#90ECF4"/>
<path fill-rule="evenodd" clip-rule="evenodd" d="M12.9892 11.084C12.6666 11.6418 11.9529 11.8323 11.3952 11.5097C10.8374 11.1871 10.6469 10.4734 10.9695 9.91566C11.5729 8.87255 12.7036 8.1665 14.0005 8.1665C15.9335 8.1665 17.5005 9.73351 17.5005 11.6665C17.5005 12.9472 16.7149 13.9928 15.7505 14.5832C14.9759 15.0574 15.4589 16.3332 13.9975 16.3332C13.3531 16.3332 12.8308 15.8108 12.8308 15.1665C12.8308 15.1255 12.8329 15.0851 12.837 15.0452C12.8694 14.4282 13.1445 13.9262 13.4441 13.5611C13.7604 13.1756 14.1764 12.8608 14.4944 12.6718C16.2639 11.6198 14.1057 9.4678 12.9892 11.084ZM13.9975 17.4998C13.3531 17.4998 12.8308 18.0222 12.8308 18.6665C12.8308 19.3108 13.3531 19.8332 13.9975 19.8332C14.6418 19.8332 15.1641 19.3108 15.1641 18.6665C15.1641 18.0222 14.6418 17.4998 13.9975 17.4998Z" fill="#444BD3"/>
</svg>
