<svg width="48" height="48" viewBox="0 0 48 48" fill="none" xmlns="http://www.w3.org/2000/svg">
<path d="M26.818 3.18198C28.5754 1.42462 31.4246 1.42462 33.182 3.18198L44.818 14.818C46.5754 16.5754 46.5754 19.4246 44.818 21.182L33.182 32.818C31.4246 34.5754 28.5754 34.5754 26.818 32.818L15.182 21.182C13.4246 19.4246 13.4246 16.5754 15.182 14.818L26.818 3.18198Z" fill="url(#paint0_linear_4321_53)"/>
<path d="M5.33301 44.0001C5.33301 43.2637 5.92996 42.6667 6.66634 42.6667H25.333C26.0694 42.6667 26.6663 43.2637 26.6663 44.0001C26.6663 44.7365 26.0694 45.3334 25.333 45.3334H6.66634C5.92996 45.3334 5.33301 44.7365 5.33301 44.0001Z" fill="#90ECF4"/>
<path d="M18.2787 19.8363C19.8408 18.2743 22.3734 18.2743 23.9355 19.8364L25.4976 21.3985C27.0597 22.9606 27.0597 25.4932 25.4976 27.0553L24.9433 27.6096L17.7243 20.3907L18.2787 19.8363Z" fill="#444BD3"/>
<path d="M7.72971 30.396C7.54672 30.6143 7.412 30.8697 7.33536 31.1454L5.39218 38.1358C5.08654 39.2353 6.09852 40.2473 7.19808 39.9417L14.1885 37.9985C14.4642 37.9218 14.7196 37.7871 14.9378 37.6041L7.72971 30.396Z" fill="#444BD3"/>
<path d="M24.9431 27.6096L17.7241 20.3906L7.84788 30.2667C7.80645 30.3082 7.76696 30.3513 7.72949 30.396L14.9376 37.6041C14.9823 37.5666 15.0254 37.5271 15.0668 37.4857L24.9431 27.6096Z" fill="#90ECF4"/>
<defs>
<linearGradient id="paint0_linear_4321_53" x1="30" y1="0" x2="30" y2="36" gradientUnits="userSpaceOnUse">
<stop stop-color="#DEDEDE"/>
<stop offset="1" stop-color="#DEDEDE" stop-opacity="0"/>
</linearGradient>
</defs>
</svg>
