<svg width="106" height="23" viewBox="0 0 106 23" fill="none" xmlns="http://www.w3.org/2000/svg">
<g clip-path="url(#clip0_658_14428)">
<path d="M52.88 5.74517C48.7408 5.74517 45.7564 8.3305 45.7564 12.2085C45.7564 16.0865 49.1157 18.6718 53.255 18.6718C55.7557 18.6718 57.9603 17.7239 59.3251 16.126L56.4568 14.5389C55.6995 15.3324 54.5485 15.7956 53.255 15.7956C51.459 15.7956 49.9331 14.898 49.3669 13.4617H59.8725C59.9549 13.0595 60.0037 12.643 60.0037 12.2049C60.0037 8.3305 57.0192 5.74517 52.88 5.74517ZM49.3332 10.9517C49.8019 9.51904 51.0841 8.61776 52.8763 8.61776C54.6722 8.61776 55.9544 9.51904 56.4194 10.9517H49.3332ZM93.2524 5.74517C89.1132 5.74517 86.1287 8.3305 86.1287 12.2085C86.1287 16.0865 89.4881 18.6718 93.6273 18.6718C96.1281 18.6718 98.3327 17.7239 99.6974 16.126L96.8292 14.5389C96.0719 15.3324 94.9208 15.7956 93.6273 15.7956C91.8314 15.7956 90.3055 14.898 89.7393 13.4617H100.245C100.327 13.0595 100.376 12.643 100.376 12.2049C100.376 8.3305 97.3916 5.74517 93.2524 5.74517ZM89.7093 10.9517C90.178 9.51904 91.4602 8.61776 93.2524 8.61776C95.0483 8.61776 96.3306 9.51904 96.7955 10.9517H89.7093ZM75.0758 12.2085C75.0758 14.3629 76.5456 15.7992 78.8251 15.7992C80.3698 15.7992 81.5284 15.1278 82.1245 14.0326L85.004 15.6233C83.8117 17.5264 81.5771 18.6718 78.8251 18.6718C74.6822 18.6718 71.7015 16.0865 71.7015 12.2085C71.7015 8.3305 74.6859 5.74517 78.8251 5.74517C81.5771 5.74517 83.8079 6.89062 85.004 8.79371L82.1245 10.3844C81.5284 9.28923 80.3698 8.61776 78.8251 8.61776C76.5493 8.61776 75.0758 10.0541 75.0758 12.2085ZM106 1.79537V18.3127H102.626V1.79537H106ZM13.8536 0L27.7073 22.9807H0L13.8536 0ZM48.4896 1.79537L38.1003 19.0309L27.711 1.79537H31.6065L38.1003 12.5676L44.5941 1.79537H48.4896ZM70.5767 6.10425V9.58367C70.2018 9.47954 69.8043 9.40772 69.3769 9.40772C67.1986 9.40772 65.6276 10.844 65.6276 12.9985V18.3127H62.2533V6.10425H65.6276V9.40772C65.6276 7.58363 67.8435 6.10425 70.5767 6.10425Z" fill="black"/>
</g>
<defs>
<clipPath id="clip0_658_14428">
<rect width="106" height="23" fill="white"/>
</clipPath>
</defs>
</svg>
