<svg width="107" height="25" viewBox="0 0 107 25" fill="none" xmlns="http://www.w3.org/2000/svg">
<g clip-path="url(#clip0_658_14431)">
<path d="M33.4143 3.86434C33.0155 2.34437 31.8642 1.15705 30.3903 0.745749C27.7388 0 17.0669 0 17.0669 0C17.0669 0 6.39506 0.0225984 3.74353 0.768348C2.26964 1.17964 1.1183 2.36697 0.719475 3.88693C-0.0825572 8.7456 -0.393728 16.1489 0.741388 20.8132C1.14022 22.3331 2.29156 23.5205 3.76544 23.9318C6.41697 24.6775 17.0888 24.6775 17.0888 24.6775C17.0888 24.6775 27.7607 24.6775 30.4122 23.9318C31.8861 23.5205 33.0374 22.3331 33.4362 20.8132C34.2821 15.9477 34.5429 8.549 33.4143 3.86434Z" fill="#FF0000"/>
<path d="M13.6699 17.6269L22.523 12.3388L13.6699 7.05078V17.6269Z" fill="white"/>
<path d="M102.66 7.16366C103.822 7.16366 104.698 7.38964 105.312 7.81901C105.925 8.24838 106.364 8.92634 106.627 9.85287C106.89 10.7794 106.999 12.0449 106.999 13.672V16.316H101.367V17.1296L101.455 19.3668C101.521 19.864 101.63 20.2256 101.806 20.4515C101.981 20.6775 102.266 20.7905 102.638 20.7905C103.142 20.7905 103.493 20.5871 103.668 20.1804C103.866 19.7736 103.953 19.0956 103.975 18.1691L106.89 18.3499C106.912 18.4855 106.912 18.6663 106.912 18.8923C106.912 20.316 106.539 21.3781 105.772 22.0786C105.005 22.7792 103.953 23.1408 102.573 23.1408C100.907 23.1408 99.7459 22.5984 99.0885 21.5363C98.4311 20.4741 98.0805 18.8019 98.0805 16.5646V13.8302C98.155 9.98847 98.8102 7.17496 102.66 7.16366ZM62.1424 7.45744V18.7793C62.1424 19.4572 62.2082 19.9544 62.3616 20.2482C62.6727 20.8764 63.4792 20.716 63.9174 20.4064C64.1704 20.23 64.3744 19.9885 64.5091 19.7058V7.45744H67.8618V22.8922H65.2322L64.9473 20.9939H64.8816C64.1585 22.4176 63.0847 23.1408 61.6603 23.1408C59.468 23.135 58.9317 21.5063 58.804 19.852L58.7957 19.7353C58.779 19.4822 58.7712 19.2294 58.7678 18.9827V7.45744H62.1424ZM79.4321 7.45744V18.7793C79.4321 19.4572 79.4979 19.9544 79.6513 20.2482C79.9624 20.8764 80.7689 20.716 81.2071 20.4064C81.4602 20.23 81.6641 19.9885 81.7988 19.7058V7.45744H85.1515V22.8922H82.5219L82.2371 20.9939H82.1713C81.4482 22.4176 80.3744 23.1408 78.95 23.1408C76.7577 23.135 76.2215 21.5063 76.0938 19.852L76.0854 19.7353C76.0687 19.4822 76.0609 19.2294 76.0575 18.9827V7.45744H79.4321ZM52.4129 7.16366C53.5085 7.16366 54.407 7.38964 55.0644 7.86421C55.7218 8.33878 56.2258 9.06193 56.5326 10.0563C56.8394 11.0506 56.9928 12.3839 56.9928 14.0336V16.2708C56.9928 17.9205 56.8394 19.2312 56.5326 20.2256C56.2258 21.2199 55.7437 21.943 55.0644 22.4176C54.3851 22.8696 53.4647 23.1182 52.3252 23.1182C51.1419 23.1408 50.2215 22.8922 49.5422 22.4402C48.8629 21.9656 48.3808 21.2425 48.0959 20.2482C47.811 19.2538 47.6796 17.9431 47.6796 16.2934V14.0562C47.6796 12.4065 47.833 11.0506 48.1617 10.0563C48.4904 9.03933 48.9944 8.31618 49.6956 7.86421C50.3968 7.41224 51.2953 7.16366 52.4129 7.16366ZM90.4108 0.97168V9.10712H90.4327C90.7395 8.51956 91.1339 8.045 91.6818 7.68342C92.1934 7.32855 92.7963 7.13966 93.4129 7.14106C94.2237 7.14106 94.8373 7.36704 95.2975 7.79641C95.7576 8.24838 96.0864 8.94894 96.2836 9.92067C96.4746 10.862 96.5834 12.1639 96.59 13.8058L96.5904 13.9658V16.4064C96.5904 18.6889 96.3055 20.3838 95.7796 21.4685C95.2317 22.5532 94.399 23.0956 93.2595 23.0956C92.624 23.0956 92.0543 22.9374 91.5284 22.6436C91.0629 22.3639 90.6775 21.9629 90.4104 21.4816L90.3669 21.4007H90.3012L89.9506 22.8696H87.1676V0.97168H90.4108ZM76.9997 1.76263V4.56483H73.6689V22.8922H70.3819V4.56483H67.0291V1.76263H76.9997ZM40.8645 1.76263L40.8663 1.77113C40.8984 1.91811 41.3416 3.94938 41.8288 6.31584L41.8673 6.50334C41.8866 6.5974 41.906 6.69193 41.9254 6.78682L41.9642 6.97705C41.9707 7.00883 41.9771 7.04064 41.9836 7.07248L42.0225 7.26385C42.029 7.2958 42.0355 7.32776 42.0419 7.35975L42.0808 7.55188L42.1373 7.83267C42.4662 9.47141 42.7803 11.115 42.9682 12.2935H43.0558C43.236 11.2363 43.4974 9.88347 43.7762 8.5023L43.8493 8.14152C43.886 7.96099 43.9229 7.78037 43.9599 7.60026L44.0174 7.32057C44.5538 4.71858 45.0876 2.28778 45.1869 1.83708L45.1933 1.80798C45.1999 1.7781 45.2033 1.76263 45.2033 1.76263H48.5561L44.6774 16.0223V22.8696H41.3685V16.0449H41.3466L37.5117 1.76263H40.8645ZM52.3471 9.55909C51.8869 9.55909 51.5801 9.80768 51.3829 10.3274C51.1857 10.8472 51.0981 11.6382 51.0981 12.7455V17.5589C51.0981 18.6889 51.1857 19.525 51.361 20.0222C51.5363 20.5193 51.865 20.7679 52.3471 20.7679C52.8073 20.7679 53.136 20.5193 53.3332 20.0222C53.5304 19.525 53.6181 18.6889 53.6181 17.5589V12.7455C53.6181 11.6382 53.5304 10.8246 53.3332 10.3274C53.136 9.80768 52.8073 9.55909 52.3471 9.55909ZM91.0024 10.0111C90.7354 10.2653 90.5453 10.5791 90.4323 10.9711L90.4108 11.0506V19.8188C90.6825 20.2934 91.0682 20.6097 91.7475 20.6323C92.0981 20.6323 92.383 20.4967 92.6021 20.2256C92.8212 19.9544 92.9746 19.5024 93.0623 18.8697C93.1464 18.2622 93.1902 17.4257 93.1936 16.36L93.1938 16.2256V14.2144C93.1938 12.9941 93.1499 12.0675 93.0842 11.4122C92.9966 10.7568 92.887 10.2822 92.6898 10.0111C92.3085 9.4461 91.4845 9.45288 91.0024 10.0111ZM102.595 9.4913C102.222 9.5139 101.959 9.62689 101.806 9.83028C101.63 10.0563 101.521 10.3952 101.455 10.8924C101.391 11.3796 101.368 13.0822 101.368 13.1502L101.367 14.2596H103.822L103.822 13.2812L103.822 13.3C103.82 13.6421 103.813 13.1014 103.798 12.4379L103.796 12.3487C103.782 11.7654 103.762 11.1152 103.734 10.8924C103.668 10.3726 103.559 10.0111 103.384 9.80768C103.208 9.60429 102.945 9.4913 102.595 9.4913Z" fill="#282828"/>
</g>
<defs>
<clipPath id="clip0_658_14431">
<rect width="107" height="25" fill="white"/>
</clipPath>
</defs>
</svg>
